<svg width="92" height="92" viewBox="0 0 92 92" fill="none" xmlns="http://www.w3.org/2000/svg">
<path d="M45.9999 0.456175C36.9923 0.456407 28.1871 3.12767 20.6976 8.13218C13.2081 13.1367 7.37085 20.2497 3.92389 28.5717C0.476929 36.8937 -0.424891 46.0509 1.33247 54.8854C3.08982 63.72 7.42743 71.835 13.7968 78.2043C20.1661 84.5737 28.2811 88.9113 37.1157 90.6687C45.9502 92.426 55.1074 91.5242 63.4294 88.0772C71.7514 84.6303 78.8644 78.793 83.8689 71.3035C88.8735 63.8141 91.5447 55.0088 91.5449 46.0012C91.5451 40.0201 90.3671 34.0976 88.0783 28.5717C85.7895 23.0459 82.4346 18.025 78.2054 13.7958C73.9761 9.56649 68.9552 6.21167 63.4294 3.92286C57.9036 1.63405 51.981 0.456067 45.9999 0.456175ZM45.9999 18.4146C48.7219 18.4147 51.3827 19.2221 53.6458 20.7345C55.909 22.2469 57.6728 24.3964 58.7143 26.9113C59.7557 29.4261 60.0281 32.1933 59.4969 34.863C58.9656 37.5326 57.6547 39.9847 55.7298 41.9093C53.805 43.8339 51.3526 45.1445 48.6829 45.6753C46.0132 46.2061 43.2461 45.9334 40.7314 44.8916C38.2167 43.8497 36.0674 42.0856 34.5553 39.8222C33.0432 37.5589 32.2363 34.898 32.2365 32.176C32.2365 30.3687 32.5925 28.579 33.2842 26.9093C33.9759 25.2395 34.9898 23.7224 36.2678 22.4445C37.5459 21.1666 39.0632 20.153 40.7331 19.4615C42.4029 18.77 44.1926 18.4143 45.9999 18.4146ZM46.1298 70.5952H25.917C25.917 57.0315 33.2974 52.2019 38.1381 47.8689C40.5495 49.1837 43.2522 49.8727 45.9988 49.8727C48.7454 49.8727 51.4481 49.1837 53.8595 47.8689C58.7002 52.2019 66.0806 57.0315 66.0806 70.5952H46.1298Z" fill="white"/>
</svg>
